<?xml version="1.0" encoding="UTF-8"?>
<svg width="300px" height="300px" version="1.1" viewBox="0 0 700 700" xmlns="http://www.w3.org/2000/svg" xmlns:xlink="http://www.w3.org/1999/xlink">
 <g>
  <path d="m538.68 524.36h-334.09c-12.824-0.03125-25.109-5.1445-34.164-14.223-9.0586-9.0742-14.145-21.375-14.145-34.195v-7.2969c-0.011718-0.58984 0.035156-1.1836 0.13281-1.7656 0.31641-12.539 5.5391-24.453 14.551-33.176 9.0078-8.7266 21.082-13.566 33.625-13.477h334.09c1.9922 0 3.8008 1.1602 4.6289 2.9727s0.52344 3.9414-0.78125 5.4453c-10.406 12.16-16.129 27.641-16.129 43.648s5.7227 31.484 16.129 43.645c1.3047 1.5078 1.6094 3.6367 0.78125 5.4492-0.82812 1.8086-2.6367 2.9727-4.6289 2.9727zm-372.21-55.789v7.3711c-0.003906 10.121 4.0078 19.832 11.156 27 7.1484 7.168 16.848 11.211 26.969 11.238h323.91c-8.0117-12.504-12.273-27.039-12.273-41.887s4.2617-29.387 12.273-41.887h-323.91c-9.9648-0.078125-19.555 3.793-26.676 10.762-7.1211 6.9688-11.195 16.473-11.332 26.438-0.007813 0.32422-0.046876 0.64844-0.11719 0.96484z"/>
  <path d="m161.3 477.41c-2.8125 0-5.0898-2.2773-5.0898-5.0898v-384.6c0.011718-13.812 5.5078-27.051 15.273-36.816s23.004-15.258 36.816-15.273h330.4c1.3516 0 2.6445 0.53516 3.6016 1.4922 0.95312 0.95312 1.4883 2.25 1.4883 3.5977v384.6c0 1.3516-0.53516 2.6445-1.4883 3.6016-0.95703 0.95312-2.25 1.4883-3.6016 1.4883h-330.4c-11.113 0.015626-21.762 4.4336-29.621 12.293-7.8555 7.8555-12.273 18.508-12.289 29.617 0 2.8125-2.2773 5.0898-5.0898 5.0898zm47-431.6c-11.113 0.015625-21.762 4.4336-29.621 12.293-7.8555 7.8555-12.273 18.508-12.289 29.617v353.7c9.8086-13.32 25.367-21.188 41.91-21.188h325.31v-374.42z"/>
  <path d="m161.3 477.41c-2.8125 0-5.0898-2.2773-5.0898-5.0898v-384.6c0.011718-13.812 5.5078-27.051 15.273-36.816s23.004-15.258 36.816-15.273h13.297c1.3516 0 2.6445 0.53516 3.5977 1.4922 0.95703 0.95312 1.4922 2.25 1.4922 3.5977v384.6c0 1.3516-0.53516 2.6445-1.4922 3.6016-0.95312 0.95312-2.2461 1.4883-3.5977 1.4883h-13.297c-11.113 0.015626-21.762 4.4336-29.621 12.293-7.8555 7.8555-12.273 18.508-12.289 29.617 0 1.3516-0.53516 2.6445-1.4922 3.6016-0.95313 0.95312-2.2461 1.4883-3.5977 1.4883zm47-431.6c-11.113 0.015625-21.762 4.4336-29.621 12.293-7.8555 7.8555-12.273 18.508-12.289 29.617v353.7c9.8086-13.32 25.367-21.188 41.91-21.188h8.207v-374.42z"/>
  <path d="m453.54 362.47h-145.9c-4.1875 0-8.207-1.6602-11.172-4.6172-2.9648-2.9609-4.6367-6.9766-4.6445-11.164v-105.63c-16.945-4.1875-30.754-16.434-36.934-32.762-6.1836-16.324-3.9492-34.645 5.9688-49.008 9.9219-14.363 26.266-22.938 43.723-22.934 8.2656-0.03125 16.418 1.9297 23.766 5.7109 4.7969-10.316 12.434-19.055 22.016-25.191 9.5859-6.1367 20.715-9.418 32.094-9.457 11.07-0.007813 21.918 3.0859 31.316 8.9375 9.3945 5.8477 16.961 14.219 21.84 24.152 6.4141-2.7578 13.332-4.1562 20.316-4.1055 17.375 0 33.648 8.4961 43.586 22.75 9.9336 14.254 12.27 32.465 6.2617 48.766-6.0117 16.301-19.613 28.633-36.422 33.023v105.78c-0.015624 4.1836-1.6875 8.1875-4.6523 11.141-2.9648 2.9531-6.9766 4.6094-11.16 4.6094zm-148.96-215.94c-14.523-0.003906-28.07 7.332-35.996 19.504-7.9258 12.172-9.1641 27.527-3.2852 40.812 5.8789 13.281 18.074 22.691 32.414 25.008 2.4727 0.39453 4.2891 2.5234 4.293 5.0273v109.84c0 1.4883 0.59375 2.9219 1.6523 3.9727 1.0586 1.0508 2.4922 1.6367 3.9805 1.625h145.9c1.4922 0.007813 2.9219-0.57812 3.9805-1.6289 1.0547-1.0508 1.6484-2.4805 1.6484-3.9688v-109.94c0-2.4805 1.7891-4.6016 4.2305-5.0234 14.23-2.5156 26.238-12.02 31.957-25.289 5.7188-13.266 4.3789-28.523-3.5625-40.594-7.9375-12.07-21.418-19.34-35.867-19.344-7.0938-0.13672-14.09 1.707-20.199 5.3164-1.3008 0.79297-2.8906 0.96484-4.332 0.46094-1.4375-0.50391-2.5781-1.625-3.1016-3.0586-3.418-9.3711-9.6602-17.457-17.867-23.129-8.207-5.6758-17.973-8.6641-27.949-8.5508-10.316 0.011719-20.367 3.25-28.746 9.2656-8.3828 6.0117-14.672 14.496-17.984 24.262-0.49609 1.5273-1.6875 2.7305-3.207 3.2461-1.5234 0.51562-3.1992 0.28516-4.5234-0.62891-6.8984-4.7227-15.074-7.2305-23.438-7.1836z"/>
  <path d="m463.93 325.66h-167.36c-2.8086 0-5.0898-2.2773-5.0898-5.0898s2.2812-5.0898 5.0898-5.0898h167.36c2.8125 0 5.0898 2.2773 5.0898 5.0898s-2.2773 5.0898-5.0898 5.0898z"/>
  <path d="m489.62 461.34h-278.98c-2.8125 0-5.0898-2.2812-5.0898-5.0898 0-2.8125 2.2773-5.0938 5.0898-5.0938h278.98c2.8086 0 5.0898 2.2812 5.0898 5.0938 0 2.8086-2.2812 5.0898-5.0898 5.0898z"/>
  <path d="m489.62 492.01h-278.98c-2.8125 0-5.0898-2.2812-5.0898-5.0898 0-2.8125 2.2773-5.0938 5.0898-5.0938h278.98c2.8086 0 5.0898 2.2812 5.0898 5.0938 0 2.8086-2.2812 5.0898-5.0898 5.0898z"/>
 </g>
</svg>
